<svg viewBox="-16 -32 880 192" width="880" height="192" xmlns="http://www.w3.org/2000/svg"><desc>Generated with https://github.com/Platane/snk</desc><style>:root{--cb:#1b1f230a;--cs:purple;--ce:#ebedf0;--c0:#ebedf0;--c1:#9be9a8;--c2:#40c463;--c3:#30a14e;--c4:#216e39}.c{shape-rendering:geometricPrecision;fill:var(--ce);stroke-width:1px;stroke:var(--cb);animation:none 31900ms linear infinite;width:12px;height:12px}@keyframes c0{61.43%{fill:var(--c2)}61.45%,100%{fill:var(--ce)}}.c.c0{fill:var(--c2);animation-name:c0}@keyframes c1{9.08%{fill:var(--c1)}9.1%,100%{fill:var(--ce)}}.c.c1{fill:var(--c1);animation-name:c1}@keyframes c2{60.81%{fill:var(--c2)}60.83%,100%{fill:var(--ce)}}.c.c2{fill:var(--c2);animation-name:c2}@keyframes c3{10.33%{fill:var(--c1)}10.35%,100%{fill:var(--ce)}}.c.c3{fill:var(--c1);animation-name:c3}@keyframes c4{1.56%{fill:var(--c1)}1.58%,100%{fill:var(--ce)}}.c.c4{fill:var(--c1);animation-name:c4}@keyframes c5{8.45%{fill:var(--c1)}8.47%,100%{fill:var(--ce)}}.c.c5{fill:var(--c1);animation-name:c5}@keyframes c6{1.87%{fill:var(--c1)}1.89%,100%{fill:var(--ce)}}.c.c6{fill:var(--c1);animation-name:c6}@keyframes c7{2.5%{fill:var(--c1)}2.52%,100%{fill:var(--ce)}}.c.c7{fill:var(--c1);animation-name:c7}@keyframes c8{7.83%{fill:var(--c1)}7.85%,100%{fill:var(--ce)}}.c.c8{fill:var(--c1);animation-name:c8}@keyframes c9{7.51%{fill:var(--c1)}7.53%,100%{fill:var(--ce)}}.c.c9{fill:var(--c1);animation-name:c9}@keyframes ca{2.81%{fill:var(--c1)}2.83%,100%{fill:var(--ce)}}.c.ca{fill:var(--c1);animation-name:ca}@keyframes cb{4.69%{fill:var(--c1)}4.71%,100%{fill:var(--ce)}}.c.cb{fill:var(--c1);animation-name:cb}@keyframes cc{3.44%{fill:var(--c1)}3.46%,100%{fill:var(--ce)}}.c.cc{fill:var(--c1);animation-name:cc}@keyframes cd{6.26%{fill:var(--c1)}6.28%,100%{fill:var(--ce)}}.c.cd{fill:var(--c1);animation-name:cd}@keyframes ce{4.07%{fill:var(--c1)}4.09%,100%{fill:var(--ce)}}.c.ce{fill:var(--c1);animation-name:ce}@keyframes cf{3.75%{fill:var(--c1)}3.77%,100%{fill:var(--ce)}}.c.cf{fill:var(--c1);animation-name:cf}@keyframes cg{58.92%{fill:var(--c2)}58.94%,100%{fill:var(--ce)}}.c.cg{fill:var(--c2);animation-name:cg}@keyframes ch{63.63%{fill:var(--c3)}63.65%,100%{fill:var(--ce)}}.c.ch{fill:var(--c3);animation-name:ch}@keyframes ci{16.6%{fill:var(--c1)}16.62%,100%{fill:var(--ce)}}.c.ci{fill:var(--c1);animation-name:ci}@keyframes cj{16.29%{fill:var(--c1)}16.31%,100%{fill:var(--ce)}}.c.cj{fill:var(--c1);animation-name:cj}@keyframes ck{15.98%{fill:var(--c1)}16%,100%{fill:var(--ce)}}.c.ck{fill:var(--c1);animation-name:ck}@keyframes cl{21.93%{fill:var(--c1)}21.95%,100%{fill:var(--ce)}}.c.cl{fill:var(--c1);animation-name:cl}@keyframes cm{19.74%{fill:var(--c1)}19.76%,100%{fill:var(--ce)}}.c.cm{fill:var(--c1);animation-name:cm}@keyframes cn{54.22%{fill:var(--c2)}54.24%,100%{fill:var(--ce)}}.c.cn{fill:var(--c2);animation-name:cn}@keyframes co{70.52%{fill:var(--c3)}70.54%,100%{fill:var(--ce)}}.c.co{fill:var(--c3);animation-name:co}@keyframes cp{68.33%{fill:var(--c3)}68.35%,100%{fill:var(--ce)}}.c.cp{fill:var(--c3);animation-name:cp}@keyframes cq{17.23%{fill:var(--c1)}17.25%,100%{fill:var(--ce)}}.c.cq{fill:var(--c1);animation-name:cq}@keyframes cr{90.9%{fill:var(--c4)}90.92%,100%{fill:var(--ce)}}.c.cr{fill:var(--c4);animation-name:cr}@keyframes cs{18.49%{fill:var(--c1)}18.51%,100%{fill:var(--ce)}}.c.cs{fill:var(--c1);animation-name:cs}@keyframes ct{51.09%{fill:var(--c2)}51.11%,100%{fill:var(--ce)}}.c.ct{fill:var(--c2);animation-name:ct}@keyframes cu{26.95%{fill:var(--c1)}26.97%,100%{fill:var(--ce)}}.c.cu{fill:var(--c1);animation-name:cu}@keyframes cv{26.64%{fill:var(--c1)}26.66%,100%{fill:var(--ce)}}.c.cv{fill:var(--c1);animation-name:cv}@keyframes cw{28.83%{fill:var(--c1)}28.85%,100%{fill:var(--ce)}}.c.cw{fill:var(--c1);animation-name:cw}@keyframes cx{32.59%{fill:var(--c1)}32.61%,100%{fill:var(--ce)}}.c.cx{fill:var(--c1);animation-name:cx}@keyframes cy{41.68%{fill:var(--c1)}41.7%,100%{fill:var(--ce)}}.c.cy{fill:var(--c1);animation-name:cy}@keyframes cz{42%{fill:var(--c1)}42.02%,100%{fill:var(--ce)}}.c.cz{fill:var(--c1);animation-name:cz}@keyframes c10{36.67%{fill:var(--c1)}36.69%,100%{fill:var(--ce)}}.c.c10{fill:var(--c1);animation-name:c10}@keyframes c11{35.1%{fill:var(--c1)}35.12%,100%{fill:var(--ce)}}.c.c11{fill:var(--c1);animation-name:c11}@keyframes c12{37.29%{fill:var(--c1)}37.31%,100%{fill:var(--ce)}}.c.c12{fill:var(--c1);animation-name:c12}@keyframes c13{39.17%{fill:var(--c1)}39.19%,100%{fill:var(--ce)}}.c.c13{fill:var(--c1);animation-name:c13}@keyframes c14{41.37%{fill:var(--c1)}41.39%,100%{fill:var(--ce)}}.c.c14{fill:var(--c1);animation-name:c14}@keyframes c15{41.06%{fill:var(--c1)}41.08%,100%{fill:var(--ce)}}.c.c15{fill:var(--c1);animation-name:c15}@keyframes c16{36.35%{fill:var(--c1)}36.37%,100%{fill:var(--ce)}}.c.c16{fill:var(--c1);animation-name:c16}@keyframes c17{35.41%{fill:var(--c1)}35.43%,100%{fill:var(--ce)}}.c.c17{fill:var(--c1);animation-name:c17}@keyframes c18{37.61%{fill:var(--c1)}37.63%,100%{fill:var(--ce)}}.c.c18{fill:var(--c1);animation-name:c18}@keyframes c19{43.56%{fill:var(--c2)}43.58%,100%{fill:var(--ce)}}.c.c19{fill:var(--c2);animation-name:c19}@keyframes c1a{39.49%{fill:var(--c1)}39.51%,100%{fill:var(--ce)}}.c.c1a{fill:var(--c1);animation-name:c1a}@keyframes c1b{42.94%{fill:var(--c2)}42.96%,100%{fill:var(--ce)}}.c.c1b{fill:var(--c2);animation-name:c1b}@keyframes c1c{40.74%{fill:var(--c1)}40.76%,100%{fill:var(--ce)}}.c.c1c{fill:var(--c1);animation-name:c1c}@keyframes c1d{36.04%{fill:var(--c1)}36.06%,100%{fill:var(--ce)}}.c.c1d{fill:var(--c1);animation-name:c1d}@keyframes c1e{35.73%{fill:var(--c1)}35.75%,100%{fill:var(--ce)}}.c.c1e{fill:var(--c1);animation-name:c1e}@keyframes c1f{81.18%{fill:var(--c3)}81.2%,100%{fill:var(--ce)}}.c.c1f{fill:var(--c3);animation-name:c1f}@keyframes c1g{43.88%{fill:var(--c2)}43.9%,100%{fill:var(--ce)}}.c.c1g{fill:var(--c2);animation-name:c1g}.u{transform-origin:0 0;transform:scale(0,1);animation:none linear 31900ms infinite}@keyframes u0{1.56%{transform:scale(0.000,1)}1.58%,1.87%{transform:scale(0.025,1)}1.89%,2.5%{transform:scale(0.050,1)}2.52%,2.81%{transform:scale(0.075,1)}2.83%,3.44%{transform:scale(0.100,1)}3.46%,3.75%{transform:scale(0.125,1)}3.77%,4.07%{transform:scale(0.150,1)}4.09%,4.69%{transform:scale(0.175,1)}4.71%,6.26%{transform:scale(0.200,1)}6.28%,7.51%{transform:scale(0.225,1)}7.53%,7.83%{transform:scale(0.250,1)}7.85%,8.45%{transform:scale(0.275,1)}8.47%,9.08%{transform:scale(0.300,1)}9.1%,10.33%{transform:scale(0.325,1)}10.35%,15.98%{transform:scale(0.350,1)}16%,16.29%{transform:scale(0.375,1)}16.31%,16.6%{transform:scale(0.400,1)}16.62%,17.23%{transform:scale(0.425,1)}17.25%,18.49%{transform:scale(0.450,1)}18.51%,19.74%{transform:scale(0.475,1)}19.76%,21.93%{transform:scale(0.500,1)}21.95%,26.64%{transform:scale(0.525,1)}26.66%,26.95%{transform:scale(0.550,1)}26.97%,28.83%{transform:scale(0.575,1)}28.85%,32.59%{transform:scale(0.600,1)}32.61%,35.1%{transform:scale(0.625,1)}35.12%,35.41%{transform:scale(0.650,1)}35.43%,35.73%{transform:scale(0.675,1)}35.75%,36.04%{transform:scale(0.700,1)}36.06%,36.35%{transform:scale(0.725,1)}36.37%,36.67%{transform:scale(0.750,1)}36.69%,37.29%{transform:scale(0.775,1)}37.31%,37.61%{transform:scale(0.800,1)}37.63%,39.17%{transform:scale(0.825,1)}39.19%,39.49%{transform:scale(0.850,1)}39.51%,40.74%{transform:scale(0.875,1)}40.76%,41.06%{transform:scale(0.900,1)}41.08%,41.37%{transform:scale(0.925,1)}41.39%,41.68%{transform:scale(0.950,1)}41.7%,42%{transform:scale(0.975,1)}42.02%,100%{transform:scale(1.000,1)}}.u.u0{fill:var(--c1);animation-name:u0;transform-origin:0.0px 0}@keyframes u1{42.94%{transform:scale(0.000,1)}42.96%,43.56%{transform:scale(0.125,1)}43.58%,43.88%{transform:scale(0.250,1)}43.9%,51.09%{transform:scale(0.375,1)}51.11%,54.22%{transform:scale(0.500,1)}54.24%,58.92%{transform:scale(0.625,1)}58.94%,60.81%{transform:scale(0.750,1)}60.83%,61.43%{transform:scale(0.875,1)}61.45%,100%{transform:scale(1.000,1)}}.u.u1{fill:var(--c2);animation-name:u1;transform-origin:640.0px 0}@keyframes u2{63.63%{transform:scale(0.000,1)}63.65%,68.33%{transform:scale(0.250,1)}68.35%,70.52%{transform:scale(0.500,1)}70.54%,81.18%{transform:scale(0.750,1)}81.2%,100%{transform:scale(1.000,1)}}.u.u2{fill:var(--c3);animation-name:u2;transform-origin:768.0px 0}@keyframes u3{90.9%{transform:scale(0.000,1)}90.92%,100%{transform:scale(1.000,1)}}.u.u3{fill:var(--c4);animation-name:u3;transform-origin:832.0px 0}.s{shape-rendering:geometricPrecision;fill:var(--cs);animation:none linear 31900ms infinite}@keyframes s0{0%,99.69%{transform:translate(0px,-16px)}0.31%{transform:translate(0px,0px)}1.88%,97.81%{transform:translate(80px,0px)}2.51%,8.15%,97.18%{transform:translate(80px,32px)}3.76%{transform:translate(144px,32px)}4.39%{transform:translate(144px,0px)}4.7%{transform:translate(128px,0px)}6.27%{transform:translate(128px,80px)}6.58%{transform:translate(112px,80px)}6.9%{transform:translate(112px,64px)}7.52%{transform:translate(80px,64px)}8.46%{transform:translate(64px,32px)}8.78%{transform:translate(64px,48px)}9.4%{transform:translate(32px,48px)}10.03%{transform:translate(32px,80px)}15.99%{transform:translate(336px,80px)}16.61%{transform:translate(336px,48px)}17.55%{transform:translate(384px,48px)}18.81%{transform:translate(384px,-16px)}19.44%{transform:translate(352px,-16px)}19.75%,68.65%{transform:translate(352px,0px)}20.06%{transform:translate(336px,0px)}21.94%{transform:translate(336px,96px)}22.26%{transform:translate(320px,96px)}22.57%{transform:translate(320px,80px)}26.33%{transform:translate(512px,80px)}26.96%{transform:translate(512px,48px)}27.9%{transform:translate(560px,48px)}28.84%{transform:translate(560px,96px)}31.03%{transform:translate(672px,96px)}32.6%{transform:translate(672px,16px)}35.74%{transform:translate(832px,16px)}36.05%{transform:translate(832px,0px)}36.68%{transform:translate(800px,0px)}37.3%{transform:translate(800px,32px)}37.62%,45.14%{transform:translate(816px,32px)}37.93%{transform:translate(816px,16px)}38.24%{transform:translate(800px,16px)}39.18%{transform:translate(800px,64px)}39.81%,44.2%{transform:translate(832px,64px)}40.44%,79.94%{transform:translate(832px,96px)}41.07%{transform:translate(800px,96px)}41.38%{transform:translate(800px,80px)}41.69%{transform:translate(784px,80px)}42.01%{transform:translate(784px,96px)}42.63%{transform:translate(816px,96px)}43.57%{transform:translate(816px,48px)}43.89%{transform:translate(832px,48px)}44.51%{transform:translate(816px,64px)}57.68%,95.3%{transform:translate(176px,32px)}57.99%,94.98%{transform:translate(176px,48px)}58.62%{transform:translate(144px,48px)}58.93%{transform:translate(144px,64px)}60.82%{transform:translate(48px,64px)}61.44%{transform:translate(48px,32px)}67.71%,90.28%{transform:translate(368px,32px)}68.34%{transform:translate(368px,0px)}70.53%{transform:translate(352px,96px)}81.19%{transform:translate(832px,32px)}90.91%{transform:translate(368px,64px)}94.36%{transform:translate(192px,64px)}94.67%{transform:translate(192px,48px)}98.12%{transform:translate(64px,0px)}98.43%{transform:translate(64px,-16px)}}.s.s0{transform:translate(0px,-16px);animation-name:s0}@keyframes s1{0%,99.69%{transform:translate(16px,-16px)}0.31%{transform:translate(0px,-16px)}0.63%{transform:translate(0px,0px)}2.19%,98.12%{transform:translate(80px,0px)}2.82%,8.46%,97.49%{transform:translate(80px,32px)}4.08%{transform:translate(144px,32px)}4.7%{transform:translate(144px,0px)}5.02%{transform:translate(128px,0px)}6.58%{transform:translate(128px,80px)}6.9%{transform:translate(112px,80px)}7.21%{transform:translate(112px,64px)}7.84%{transform:translate(80px,64px)}8.78%{transform:translate(64px,32px)}9.09%{transform:translate(64px,48px)}9.72%{transform:translate(32px,48px)}10.34%{transform:translate(32px,80px)}16.3%{transform:translate(336px,80px)}16.93%{transform:translate(336px,48px)}17.87%{transform:translate(384px,48px)}19.12%{transform:translate(384px,-16px)}19.75%{transform:translate(352px,-16px)}20.06%,68.97%{transform:translate(352px,0px)}20.38%{transform:translate(336px,0px)}22.26%{transform:translate(336px,96px)}22.57%{transform:translate(320px,96px)}22.88%{transform:translate(320px,80px)}26.65%{transform:translate(512px,80px)}27.27%{transform:translate(512px,48px)}28.21%{transform:translate(560px,48px)}29.15%{transform:translate(560px,96px)}31.35%{transform:translate(672px,96px)}32.92%{transform:translate(672px,16px)}36.05%{transform:translate(832px,16px)}36.36%{transform:translate(832px,0px)}36.99%{transform:translate(800px,0px)}37.62%{transform:translate(800px,32px)}37.93%,45.45%{transform:translate(816px,32px)}38.24%{transform:translate(816px,16px)}38.56%{transform:translate(800px,16px)}39.5%{transform:translate(800px,64px)}40.13%,44.51%{transform:translate(832px,64px)}40.75%,80.25%{transform:translate(832px,96px)}41.38%{transform:translate(800px,96px)}41.69%{transform:translate(800px,80px)}42.01%{transform:translate(784px,80px)}42.32%{transform:translate(784px,96px)}42.95%{transform:translate(816px,96px)}43.89%{transform:translate(816px,48px)}44.2%{transform:translate(832px,48px)}44.83%{transform:translate(816px,64px)}57.99%,95.61%{transform:translate(176px,32px)}58.31%,95.3%{transform:translate(176px,48px)}58.93%{transform:translate(144px,48px)}59.25%{transform:translate(144px,64px)}61.13%{transform:translate(48px,64px)}61.76%{transform:translate(48px,32px)}68.03%,90.6%{transform:translate(368px,32px)}68.65%{transform:translate(368px,0px)}70.85%{transform:translate(352px,96px)}81.5%{transform:translate(832px,32px)}91.22%{transform:translate(368px,64px)}94.67%{transform:translate(192px,64px)}94.98%{transform:translate(192px,48px)}98.43%{transform:translate(64px,0px)}98.75%{transform:translate(64px,-16px)}}.s.s1{transform:translate(16px,-16px);animation-name:s1}@keyframes s2{0%,99.69%{transform:translate(32px,-16px)}0.63%{transform:translate(0px,-16px)}0.94%{transform:translate(0px,0px)}2.51%,98.43%{transform:translate(80px,0px)}3.13%,8.78%,97.81%{transform:translate(80px,32px)}4.39%{transform:translate(144px,32px)}5.02%{transform:translate(144px,0px)}5.33%{transform:translate(128px,0px)}6.9%{transform:translate(128px,80px)}7.21%{transform:translate(112px,80px)}7.52%{transform:translate(112px,64px)}8.15%{transform:translate(80px,64px)}9.09%{transform:translate(64px,32px)}9.4%{transform:translate(64px,48px)}10.03%{transform:translate(32px,48px)}10.66%{transform:translate(32px,80px)}16.61%{transform:translate(336px,80px)}17.24%{transform:translate(336px,48px)}18.18%{transform:translate(384px,48px)}19.44%{transform:translate(384px,-16px)}20.06%{transform:translate(352px,-16px)}20.38%,69.28%{transform:translate(352px,0px)}20.69%{transform:translate(336px,0px)}22.57%{transform:translate(336px,96px)}22.88%{transform:translate(320px,96px)}23.2%{transform:translate(320px,80px)}26.96%{transform:translate(512px,80px)}27.59%{transform:translate(512px,48px)}28.53%{transform:translate(560px,48px)}29.47%{transform:translate(560px,96px)}31.66%{transform:translate(672px,96px)}33.23%{transform:translate(672px,16px)}36.36%{transform:translate(832px,16px)}36.68%{transform:translate(832px,0px)}37.3%{transform:translate(800px,0px)}37.93%{transform:translate(800px,32px)}38.24%,45.77%{transform:translate(816px,32px)}38.56%{transform:translate(816px,16px)}38.87%{transform:translate(800px,16px)}39.81%{transform:translate(800px,64px)}40.44%,44.83%{transform:translate(832px,64px)}41.07%,80.56%{transform:translate(832px,96px)}41.69%{transform:translate(800px,96px)}42.01%{transform:translate(800px,80px)}42.32%{transform:translate(784px,80px)}42.63%{transform:translate(784px,96px)}43.26%{transform:translate(816px,96px)}44.2%{transform:translate(816px,48px)}44.51%{transform:translate(832px,48px)}45.14%{transform:translate(816px,64px)}58.31%,95.92%{transform:translate(176px,32px)}58.62%,95.61%{transform:translate(176px,48px)}59.25%{transform:translate(144px,48px)}59.56%{transform:translate(144px,64px)}61.44%{transform:translate(48px,64px)}62.07%{transform:translate(48px,32px)}68.34%,90.91%{transform:translate(368px,32px)}68.97%{transform:translate(368px,0px)}71.16%{transform:translate(352px,96px)}81.82%{transform:translate(832px,32px)}91.54%{transform:translate(368px,64px)}94.98%{transform:translate(192px,64px)}95.3%{transform:translate(192px,48px)}98.75%{transform:translate(64px,0px)}99.06%{transform:translate(64px,-16px)}}.s.s2{transform:translate(32px,-16px);animation-name:s2}@keyframes s3{0%,99.69%{transform:translate(48px,-16px)}0.94%{transform:translate(0px,-16px)}1.25%{transform:translate(0px,0px)}2.82%,98.75%{transform:translate(80px,0px)}3.45%,9.09%,98.12%{transform:translate(80px,32px)}4.7%{transform:translate(144px,32px)}5.33%{transform:translate(144px,0px)}5.64%{transform:translate(128px,0px)}7.21%{transform:translate(128px,80px)}7.52%{transform:translate(112px,80px)}7.84%{transform:translate(112px,64px)}8.46%{transform:translate(80px,64px)}9.4%{transform:translate(64px,32px)}9.72%{transform:translate(64px,48px)}10.34%{transform:translate(32px,48px)}10.97%{transform:translate(32px,80px)}16.93%{transform:translate(336px,80px)}17.55%{transform:translate(336px,48px)}18.5%{transform:translate(384px,48px)}19.75%{transform:translate(384px,-16px)}20.38%{transform:translate(352px,-16px)}20.69%,69.59%{transform:translate(352px,0px)}21%{transform:translate(336px,0px)}22.88%{transform:translate(336px,96px)}23.2%{transform:translate(320px,96px)}23.51%{transform:translate(320px,80px)}27.27%{transform:translate(512px,80px)}27.9%{transform:translate(512px,48px)}28.84%{transform:translate(560px,48px)}29.78%{transform:translate(560px,96px)}31.97%{transform:translate(672px,96px)}33.54%{transform:translate(672px,16px)}36.68%{transform:translate(832px,16px)}36.99%{transform:translate(832px,0px)}37.62%{transform:translate(800px,0px)}38.24%{transform:translate(800px,32px)}38.56%,46.08%{transform:translate(816px,32px)}38.87%{transform:translate(816px,16px)}39.18%{transform:translate(800px,16px)}40.13%{transform:translate(800px,64px)}40.75%,45.14%{transform:translate(832px,64px)}41.38%,80.88%{transform:translate(832px,96px)}42.01%{transform:translate(800px,96px)}42.32%{transform:translate(800px,80px)}42.63%{transform:translate(784px,80px)}42.95%{transform:translate(784px,96px)}43.57%{transform:translate(816px,96px)}44.51%{transform:translate(816px,48px)}44.83%{transform:translate(832px,48px)}45.45%{transform:translate(816px,64px)}58.62%,96.24%{transform:translate(176px,32px)}58.93%,95.92%{transform:translate(176px,48px)}59.56%{transform:translate(144px,48px)}59.87%{transform:translate(144px,64px)}61.76%{transform:translate(48px,64px)}62.38%{transform:translate(48px,32px)}68.65%,91.22%{transform:translate(368px,32px)}69.28%{transform:translate(368px,0px)}71.47%{transform:translate(352px,96px)}82.13%{transform:translate(832px,32px)}91.85%{transform:translate(368px,64px)}95.3%{transform:translate(192px,64px)}95.61%{transform:translate(192px,48px)}99.06%{transform:translate(64px,0px)}99.37%{transform:translate(64px,-16px)}}.s.s3{transform:translate(48px,-16px);animation-name:s3}</style><rect class="c" x="2" y="2" rx="2" ry="2"/><rect class="c" x="2" y="18" rx="2" ry="2"/><rect class="c" x="2" y="34" rx="2" ry="2"/><rect class="c" x="2" y="50" rx="2" ry="2"/><rect class="c" x="2" y="66" rx="2" ry="2"/><rect class="c" x="2" y="82" rx="2" ry="2"/><rect class="c" x="2" y="98" rx="2" ry="2"/><rect class="c" x="18" y="2" rx="2" ry="2"/><rect class="c" x="18" y="18" rx="2" ry="2"/><rect class="c" x="18" y="34" rx="2" ry="2"/><rect class="c" x="18" y="50" rx="2" ry="2"/><rect class="c" x="18" y="66" rx="2" ry="2"/><rect class="c" x="18" y="82" rx="2" ry="2"/><rect class="c" x="18" y="98" rx="2" ry="2"/><rect class="c" x="34" y="2" rx="2" ry="2"/><rect class="c" x="34" y="18" rx="2" ry="2"/><rect class="c" x="34" y="34" rx="2" ry="2"/><rect class="c" x="34" y="50" rx="2" ry="2"/><rect class="c" x="34" y="66" rx="2" ry="2"/><rect class="c" x="34" y="82" rx="2" ry="2"/><rect class="c" x="34" y="98" rx="2" ry="2"/><rect class="c" x="50" y="2" rx="2" ry="2"/><rect class="c" x="50" y="18" rx="2" ry="2"/><rect class="c c0" x="50" y="34" rx="2" ry="2"/><rect class="c c1" x="50" y="50" rx="2" ry="2"/><rect class="c c2" x="50" y="66" rx="2" ry="2"/><rect class="c c3" x="50" y="82" rx="2" ry="2"/><rect class="c" x="50" y="98" rx="2" ry="2"/><rect class="c c4" x="66" y="2" rx="2" ry="2"/><rect class="c" x="66" y="18" rx="2" ry="2"/><rect class="c c5" x="66" y="34" rx="2" ry="2"/><rect class="c" x="66" y="50" rx="2" ry="2"/><rect class="c" x="66" y="66" rx="2" ry="2"/><rect class="c" x="66" y="82" rx="2" ry="2"/><rect class="c" x="66" y="98" rx="2" ry="2"/><rect class="c c6" x="82" y="2" rx="2" ry="2"/><rect class="c" x="82" y="18" rx="2" ry="2"/><rect class="c c7" x="82" y="34" rx="2" ry="2"/><rect class="c c8" x="82" y="50" rx="2" ry="2"/><rect class="c c9" x="82" y="66" rx="2" ry="2"/><rect class="c" x="82" y="82" rx="2" ry="2"/><rect class="c" x="82" y="98" rx="2" ry="2"/><rect class="c" x="98" y="2" rx="2" ry="2"/><rect class="c" x="98" y="18" rx="2" ry="2"/><rect class="c ca" x="98" y="34" rx="2" ry="2"/><rect class="c" x="98" y="50" rx="2" ry="2"/><rect class="c" x="98" y="66" rx="2" ry="2"/><rect class="c" x="98" y="82" rx="2" ry="2"/><rect class="c" x="98" y="98" rx="2" ry="2"/><rect class="c" x="114" y="2" rx="2" ry="2"/><rect class="c" x="114" y="18" rx="2" ry="2"/><rect class="c" x="114" y="34" rx="2" ry="2"/><rect class="c" x="114" y="50" rx="2" ry="2"/><rect class="c" x="114" y="66" rx="2" ry="2"/><rect class="c" x="114" y="82" rx="2" ry="2"/><rect class="c" x="114" y="98" rx="2" ry="2"/><rect class="c cb" x="130" y="2" rx="2" ry="2"/><rect class="c" x="130" y="18" rx="2" ry="2"/><rect class="c cc" x="130" y="34" rx="2" ry="2"/><rect class="c" x="130" y="50" rx="2" ry="2"/><rect class="c" x="130" y="66" rx="2" ry="2"/><rect class="c cd" x="130" y="82" rx="2" ry="2"/><rect class="c" x="130" y="98" rx="2" ry="2"/><rect class="c" x="146" y="2" rx="2" ry="2"/><rect class="c ce" x="146" y="18" rx="2" ry="2"/><rect class="c cf" x="146" y="34" rx="2" ry="2"/><rect class="c" x="146" y="50" rx="2" ry="2"/><rect class="c cg" x="146" y="66" rx="2" ry="2"/><rect class="c" x="146" y="82" rx="2" ry="2"/><rect class="c" x="146" y="98" rx="2" ry="2"/><rect class="c" x="162" y="2" rx="2" ry="2"/><rect class="c" x="162" y="18" rx="2" ry="2"/><rect class="c ch" x="162" y="34" rx="2" ry="2"/><rect class="c" x="162" y="50" rx="2" ry="2"/><rect class="c" x="162" y="66" rx="2" ry="2"/><rect class="c" x="162" y="82" rx="2" ry="2"/><rect class="c" x="162" y="98" rx="2" ry="2"/><rect class="c" x="178" y="2" rx="2" ry="2"/><rect class="c" x="178" y="18" rx="2" ry="2"/><rect class="c" x="178" y="34" rx="2" ry="2"/><rect class="c" x="178" y="50" rx="2" ry="2"/><rect class="c" x="178" y="66" rx="2" ry="2"/><rect class="c" x="178" y="82" rx="2" ry="2"/><rect class="c" x="178" y="98" rx="2" ry="2"/><rect class="c" x="194" y="2" rx="2" ry="2"/><rect class="c" x="194" y="18" rx="2" ry="2"/><rect class="c" x="194" y="34" rx="2" ry="2"/><rect class="c" x="194" y="50" rx="2" ry="2"/><rect class="c" x="194" y="66" rx="2" ry="2"/><rect class="c" x="194" y="82" rx="2" ry="2"/><rect class="c" x="194" y="98" rx="2" ry="2"/><rect class="c" x="210" y="2" rx="2" ry="2"/><rect class="c" x="210" y="18" rx="2" ry="2"/><rect class="c" x="210" y="34" rx="2" ry="2"/><rect class="c" x="210" y="50" rx="2" ry="2"/><rect class="c" x="210" y="66" rx="2" ry="2"/><rect class="c" x="210" y="82" rx="2" ry="2"/><rect class="c" x="210" y="98" rx="2" ry="2"/><rect class="c" x="226" y="2" rx="2" ry="2"/><rect class="c" x="226" y="18" rx="2" ry="2"/><rect class="c" x="226" y="34" rx="2" ry="2"/><rect class="c" x="226" y="50" rx="2" ry="2"/><rect class="c" x="226" y="66" rx="2" ry="2"/><rect class="c" x="226" y="82" rx="2" ry="2"/><rect class="c" x="226" y="98" rx="2" ry="2"/><rect class="c" x="242" y="2" rx="2" ry="2"/><rect class="c" x="242" y="18" rx="2" ry="2"/><rect class="c" x="242" y="34" rx="2" ry="2"/><rect class="c" x="242" y="50" rx="2" ry="2"/><rect class="c" x="242" y="66" rx="2" ry="2"/><rect class="c" x="242" y="82" rx="2" ry="2"/><rect class="c" x="242" y="98" rx="2" ry="2"/><rect class="c" x="258" y="2" rx="2" ry="2"/><rect class="c" x="258" y="18" rx="2" ry="2"/><rect class="c" x="258" y="34" rx="2" ry="2"/><rect class="c" x="258" y="50" rx="2" ry="2"/><rect class="c" x="258" y="66" rx="2" ry="2"/><rect class="c" x="258" y="82" rx="2" ry="2"/><rect class="c" x="258" y="98" rx="2" ry="2"/><rect class="c" x="274" y="2" rx="2" ry="2"/><rect class="c" x="274" y="18" rx="2" ry="2"/><rect class="c" x="274" y="34" rx="2" ry="2"/><rect class="c" x="274" y="50" rx="2" ry="2"/><rect class="c" x="274" y="66" rx="2" ry="2"/><rect class="c" x="274" y="82" rx="2" ry="2"/><rect class="c" x="274" y="98" rx="2" ry="2"/><rect class="c" x="290" y="2" rx="2" ry="2"/><rect class="c" x="290" y="18" rx="2" ry="2"/><rect class="c" x="290" y="34" rx="2" ry="2"/><rect class="c" x="290" y="50" rx="2" ry="2"/><rect class="c" x="290" y="66" rx="2" ry="2"/><rect class="c" x="290" y="82" rx="2" ry="2"/><rect class="c" x="290" y="98" rx="2" ry="2"/><rect class="c" x="306" y="2" rx="2" ry="2"/><rect class="c" x="306" y="18" rx="2" ry="2"/><rect class="c" x="306" y="34" rx="2" ry="2"/><rect class="c" x="306" y="50" rx="2" ry="2"/><rect class="c" x="306" y="66" rx="2" ry="2"/><rect class="c" x="306" y="82" rx="2" ry="2"/><rect class="c" x="306" y="98" rx="2" ry="2"/><rect class="c" x="322" y="2" rx="2" ry="2"/><rect class="c" x="322" y="18" rx="2" ry="2"/><rect class="c" x="322" y="34" rx="2" ry="2"/><rect class="c" x="322" y="50" rx="2" ry="2"/><rect class="c" x="322" y="66" rx="2" ry="2"/><rect class="c" x="322" y="82" rx="2" ry="2"/><rect class="c" x="322" y="98" rx="2" ry="2"/><rect class="c" x="338" y="2" rx="2" ry="2"/><rect class="c" x="338" y="18" rx="2" ry="2"/><rect class="c" x="338" y="34" rx="2" ry="2"/><rect class="c ci" x="338" y="50" rx="2" ry="2"/><rect class="c cj" x="338" y="66" rx="2" ry="2"/><rect class="c ck" x="338" y="82" rx="2" ry="2"/><rect class="c cl" x="338" y="98" rx="2" ry="2"/><rect class="c cm" x="354" y="2" rx="2" ry="2"/><rect class="c" x="354" y="18" rx="2" ry="2"/><rect class="c cn" x="354" y="34" rx="2" ry="2"/><rect class="c" x="354" y="50" rx="2" ry="2"/><rect class="c" x="354" y="66" rx="2" ry="2"/><rect class="c" x="354" y="82" rx="2" ry="2"/><rect class="c co" x="354" y="98" rx="2" ry="2"/><rect class="c cp" x="370" y="2" rx="2" ry="2"/><rect class="c" x="370" y="18" rx="2" ry="2"/><rect class="c" x="370" y="34" rx="2" ry="2"/><rect class="c cq" x="370" y="50" rx="2" ry="2"/><rect class="c cr" x="370" y="66" rx="2" ry="2"/><rect class="c" x="370" y="82" rx="2" ry="2"/><rect class="c" x="370" y="98" rx="2" ry="2"/><rect class="c cs" x="386" y="2" rx="2" ry="2"/><rect class="c" x="386" y="18" rx="2" ry="2"/><rect class="c" x="386" y="34" rx="2" ry="2"/><rect class="c" x="386" y="50" rx="2" ry="2"/><rect class="c" x="386" y="66" rx="2" ry="2"/><rect class="c" x="386" y="82" rx="2" ry="2"/><rect class="c" x="386" y="98" rx="2" ry="2"/><rect class="c" x="402" y="2" rx="2" ry="2"/><rect class="c" x="402" y="18" rx="2" ry="2"/><rect class="c" x="402" y="34" rx="2" ry="2"/><rect class="c" x="402" y="50" rx="2" ry="2"/><rect class="c" x="402" y="66" rx="2" ry="2"/><rect class="c" x="402" y="82" rx="2" ry="2"/><rect class="c" x="402" y="98" rx="2" ry="2"/><rect class="c" x="418" y="2" rx="2" ry="2"/><rect class="c" x="418" y="18" rx="2" ry="2"/><rect class="c" x="418" y="34" rx="2" ry="2"/><rect class="c" x="418" y="50" rx="2" ry="2"/><rect class="c" x="418" y="66" rx="2" ry="2"/><rect class="c" x="418" y="82" rx="2" ry="2"/><rect class="c" x="418" y="98" rx="2" ry="2"/><rect class="c" x="434" y="2" rx="2" ry="2"/><rect class="c" x="434" y="18" rx="2" ry="2"/><rect class="c" x="434" y="34" rx="2" ry="2"/><rect class="c" x="434" y="50" rx="2" ry="2"/><rect class="c" x="434" y="66" rx="2" ry="2"/><rect class="c" x="434" y="82" rx="2" ry="2"/><rect class="c" x="434" y="98" rx="2" ry="2"/><rect class="c" x="450" y="2" rx="2" ry="2"/><rect class="c" x="450" y="18" rx="2" ry="2"/><rect class="c" x="450" y="34" rx="2" ry="2"/><rect class="c" x="450" y="50" rx="2" ry="2"/><rect class="c" x="450" y="66" rx="2" ry="2"/><rect class="c" x="450" y="82" rx="2" ry="2"/><rect class="c" x="450" y="98" rx="2" ry="2"/><rect class="c" x="466" y="2" rx="2" ry="2"/><rect class="c" x="466" y="18" rx="2" ry="2"/><rect class="c" x="466" y="34" rx="2" ry="2"/><rect class="c" x="466" y="50" rx="2" ry="2"/><rect class="c" x="466" y="66" rx="2" ry="2"/><rect class="c" x="466" y="82" rx="2" ry="2"/><rect class="c" x="466" y="98" rx="2" ry="2"/><rect class="c" x="482" y="2" rx="2" ry="2"/><rect class="c" x="482" y="18" rx="2" ry="2"/><rect class="c" x="482" y="34" rx="2" ry="2"/><rect class="c" x="482" y="50" rx="2" ry="2"/><rect class="c" x="482" y="66" rx="2" ry="2"/><rect class="c" x="482" y="82" rx="2" ry="2"/><rect class="c" x="482" y="98" rx="2" ry="2"/><rect class="c" x="498" y="2" rx="2" ry="2"/><rect class="c" x="498" y="18" rx="2" ry="2"/><rect class="c" x="498" y="34" rx="2" ry="2"/><rect class="c" x="498" y="50" rx="2" ry="2"/><rect class="c" x="498" y="66" rx="2" ry="2"/><rect class="c" x="498" y="82" rx="2" ry="2"/><rect class="c" x="498" y="98" rx="2" ry="2"/><rect class="c" x="514" y="2" rx="2" ry="2"/><rect class="c" x="514" y="18" rx="2" ry="2"/><rect class="c ct" x="514" y="34" rx="2" ry="2"/><rect class="c cu" x="514" y="50" rx="2" ry="2"/><rect class="c cv" x="514" y="66" rx="2" ry="2"/><rect class="c" x="514" y="82" rx="2" ry="2"/><rect class="c" x="514" y="98" rx="2" ry="2"/><rect class="c" x="530" y="2" rx="2" ry="2"/><rect class="c" x="530" y="18" rx="2" ry="2"/><rect class="c" x="530" y="34" rx="2" ry="2"/><rect class="c" x="530" y="50" rx="2" ry="2"/><rect class="c" x="530" y="66" rx="2" ry="2"/><rect class="c" x="530" y="82" rx="2" ry="2"/><rect class="c" x="530" y="98" rx="2" ry="2"/><rect class="c" x="546" y="2" rx="2" ry="2"/><rect class="c" x="546" y="18" rx="2" ry="2"/><rect class="c" x="546" y="34" rx="2" ry="2"/><rect class="c" x="546" y="50" rx="2" ry="2"/><rect class="c" x="546" y="66" rx="2" ry="2"/><rect class="c" x="546" y="82" rx="2" ry="2"/><rect class="c" x="546" y="98" rx="2" ry="2"/><rect class="c" x="562" y="2" rx="2" ry="2"/><rect class="c" x="562" y="18" rx="2" ry="2"/><rect class="c" x="562" y="34" rx="2" ry="2"/><rect class="c" x="562" y="50" rx="2" ry="2"/><rect class="c" x="562" y="66" rx="2" ry="2"/><rect class="c" x="562" y="82" rx="2" ry="2"/><rect class="c cw" x="562" y="98" rx="2" ry="2"/><rect class="c" x="578" y="2" rx="2" ry="2"/><rect class="c" x="578" y="18" rx="2" ry="2"/><rect class="c" x="578" y="34" rx="2" ry="2"/><rect class="c" x="578" y="50" rx="2" ry="2"/><rect class="c" x="578" y="66" rx="2" ry="2"/><rect class="c" x="578" y="82" rx="2" ry="2"/><rect class="c" x="578" y="98" rx="2" ry="2"/><rect class="c" x="594" y="2" rx="2" ry="2"/><rect class="c" x="594" y="18" rx="2" ry="2"/><rect class="c" x="594" y="34" rx="2" ry="2"/><rect class="c" x="594" y="50" rx="2" ry="2"/><rect class="c" x="594" y="66" rx="2" ry="2"/><rect class="c" x="594" y="82" rx="2" ry="2"/><rect class="c" x="594" y="98" rx="2" ry="2"/><rect class="c" x="610" y="2" rx="2" ry="2"/><rect class="c" x="610" y="18" rx="2" ry="2"/><rect class="c" x="610" y="34" rx="2" ry="2"/><rect class="c" x="610" y="50" rx="2" ry="2"/><rect class="c" x="610" y="66" rx="2" ry="2"/><rect class="c" x="610" y="82" rx="2" ry="2"/><rect class="c" x="610" y="98" rx="2" ry="2"/><rect class="c" x="626" y="2" rx="2" ry="2"/><rect class="c" x="626" y="18" rx="2" ry="2"/><rect class="c" x="626" y="34" rx="2" ry="2"/><rect class="c" x="626" y="50" rx="2" ry="2"/><rect class="c" x="626" y="66" rx="2" ry="2"/><rect class="c" x="626" y="82" rx="2" ry="2"/><rect class="c" x="626" y="98" rx="2" ry="2"/><rect class="c" x="642" y="2" rx="2" ry="2"/><rect class="c" x="642" y="18" rx="2" ry="2"/><rect class="c" x="642" y="34" rx="2" ry="2"/><rect class="c" x="642" y="50" rx="2" ry="2"/><rect class="c" x="642" y="66" rx="2" ry="2"/><rect class="c" x="642" y="82" rx="2" ry="2"/><rect class="c" x="642" y="98" rx="2" ry="2"/><rect class="c" x="658" y="2" rx="2" ry="2"/><rect class="c" x="658" y="18" rx="2" ry="2"/><rect class="c" x="658" y="34" rx="2" ry="2"/><rect class="c" x="658" y="50" rx="2" ry="2"/><rect class="c" x="658" y="66" rx="2" ry="2"/><rect class="c" x="658" y="82" rx="2" ry="2"/><rect class="c" x="658" y="98" rx="2" ry="2"/><rect class="c" x="674" y="2" rx="2" ry="2"/><rect class="c cx" x="674" y="18" rx="2" ry="2"/><rect class="c" x="674" y="34" rx="2" ry="2"/><rect class="c" x="674" y="50" rx="2" ry="2"/><rect class="c" x="674" y="66" rx="2" ry="2"/><rect class="c" x="674" y="82" rx="2" ry="2"/><rect class="c" x="674" y="98" rx="2" ry="2"/><rect class="c" x="690" y="2" rx="2" ry="2"/><rect class="c" x="690" y="18" rx="2" ry="2"/><rect class="c" x="690" y="34" rx="2" ry="2"/><rect class="c" x="690" y="50" rx="2" ry="2"/><rect class="c" x="690" y="66" rx="2" ry="2"/><rect class="c" x="690" y="82" rx="2" ry="2"/><rect class="c" x="690" y="98" rx="2" ry="2"/><rect class="c" x="706" y="2" rx="2" ry="2"/><rect class="c" x="706" y="18" rx="2" ry="2"/><rect class="c" x="706" y="34" rx="2" ry="2"/><rect class="c" x="706" y="50" rx="2" ry="2"/><rect class="c" x="706" y="66" rx="2" ry="2"/><rect class="c" x="706" y="82" rx="2" ry="2"/><rect class="c" x="706" y="98" rx="2" ry="2"/><rect class="c" x="722" y="2" rx="2" ry="2"/><rect class="c" x="722" y="18" rx="2" ry="2"/><rect class="c" x="722" y="34" rx="2" ry="2"/><rect class="c" x="722" y="50" rx="2" ry="2"/><rect class="c" x="722" y="66" rx="2" ry="2"/><rect class="c" x="722" y="82" rx="2" ry="2"/><rect class="c" x="722" y="98" rx="2" ry="2"/><rect class="c" x="738" y="2" rx="2" ry="2"/><rect class="c" x="738" y="18" rx="2" ry="2"/><rect class="c" x="738" y="34" rx="2" ry="2"/><rect class="c" x="738" y="50" rx="2" ry="2"/><rect class="c" x="738" y="66" rx="2" ry="2"/><rect class="c" x="738" y="82" rx="2" ry="2"/><rect class="c" x="738" y="98" rx="2" ry="2"/><rect class="c" x="754" y="2" rx="2" ry="2"/><rect class="c" x="754" y="18" rx="2" ry="2"/><rect class="c" x="754" y="34" rx="2" ry="2"/><rect class="c" x="754" y="50" rx="2" ry="2"/><rect class="c" x="754" y="66" rx="2" ry="2"/><rect class="c" x="754" y="82" rx="2" ry="2"/><rect class="c" x="754" y="98" rx="2" ry="2"/><rect class="c" x="770" y="2" rx="2" ry="2"/><rect class="c" x="770" y="18" rx="2" ry="2"/><rect class="c" x="770" y="34" rx="2" ry="2"/><rect class="c" x="770" y="50" rx="2" ry="2"/><rect class="c" x="770" y="66" rx="2" ry="2"/><rect class="c" x="770" y="82" rx="2" ry="2"/><rect class="c" x="770" y="98" rx="2" ry="2"/><rect class="c" x="786" y="2" rx="2" ry="2"/><rect class="c" x="786" y="18" rx="2" ry="2"/><rect class="c" x="786" y="34" rx="2" ry="2"/><rect class="c" x="786" y="50" rx="2" ry="2"/><rect class="c" x="786" y="66" rx="2" ry="2"/><rect class="c cy" x="786" y="82" rx="2" ry="2"/><rect class="c cz" x="786" y="98" rx="2" ry="2"/><rect class="c c10" x="802" y="2" rx="2" ry="2"/><rect class="c c11" x="802" y="18" rx="2" ry="2"/><rect class="c c12" x="802" y="34" rx="2" ry="2"/><rect class="c" x="802" y="50" rx="2" ry="2"/><rect class="c c13" x="802" y="66" rx="2" ry="2"/><rect class="c c14" x="802" y="82" rx="2" ry="2"/><rect class="c c15" x="802" y="98" rx="2" ry="2"/><rect class="c c16" x="818" y="2" rx="2" ry="2"/><rect class="c c17" x="818" y="18" rx="2" ry="2"/><rect class="c c18" x="818" y="34" rx="2" ry="2"/><rect class="c c19" x="818" y="50" rx="2" ry="2"/><rect class="c c1a" x="818" y="66" rx="2" ry="2"/><rect class="c c1b" x="818" y="82" rx="2" ry="2"/><rect class="c c1c" x="818" y="98" rx="2" ry="2"/><rect class="c c1d" x="834" y="2" rx="2" ry="2"/><rect class="c c1e" x="834" y="18" rx="2" ry="2"/><rect class="c c1f" x="834" y="34" rx="2" ry="2"/><rect class="c c1g" x="834" y="50" rx="2" ry="2"/><rect class="u u0" height="12" width="640.6" x="0.0" y="144"/><rect class="u u1" height="12" width="128.6" x="640.0" y="144"/><rect class="u u2" height="12" width="64.6" x="768.0" y="144"/><rect class="u u3" height="12" width="16.6" x="832.0" y="144"/><rect class="s s0" x="0.8" y="0.8" width="14.4" height="14.4" rx="4.5" ry="4.5"/><rect class="s s1" x="1.8" y="1.8" width="12.3" height="12.3" rx="4.1" ry="4.1"/><rect class="s s2" x="2.6" y="2.6" width="10.8" height="10.8" rx="3.6" ry="3.6"/><rect class="s s3" x="3.0" y="3.0" width="9.9" height="9.9" rx="3.3" ry="3.3"/></svg>